<svg xmlns="http://www.w3.org/2000/svg" width="480" height="270" viewBox="0 0 480 270">
<defs></defs>
<rect width="480" height="270" fill="#0a0a14"/>
<rect x="0" y="0" width="480" height="3" fill="#3b82f6"/>
<circle cx="60" cy="60" r="80" fill="#3b82f6" opacity=".05"/>
<!-- 홈택스 로고영역 -->
<rect x="28" y="28" width="100" height="36" rx="8" fill="#3b82f6" opacity=".15"/>
<text x="78" y="51" font-family="Arial,sans-serif" font-size="13" font-weight="800" fill="#58a6ff" text-anchor="middle">🏛️ 홈택스</text>
<!-- 진행 단계 수직 -->
<line x1="58" y1="90" x2="58" y2="230" stroke="#333" stroke-width="2"/>
<circle cx="58" cy="100" r="8" fill="#3b82f6"/>
<text x="80" y="104" font-family="Arial,sans-serif" font-size="11" font-weight="700" fill="#e0e0e0">로그인 &amp; 신고서 작성 메뉴</text>
<circle cx="58" cy="135" r="8" fill="#3b82f6" opacity=".7"/>
<text x="80" y="139" font-family="Arial,sans-serif" font-size="11" font-weight="700" fill="#e0e0e0">가상자산 거래내역 입력</text>
<circle cx="58" cy="170" r="8" fill="#3b82f6" opacity=".5"/>
<text x="80" y="174" font-family="Arial,sans-serif" font-size="11" font-weight="700" fill="#e0e0e0">취득원가·양도가액 확인</text>
<circle cx="58" cy="205" r="8" fill="#3fb950"/>
<text x="80" y="209" font-family="Arial,sans-serif" font-size="11" font-weight="700" fill="#3fb950">제출 완료 → 납부</text>
<!-- 우측 정보 -->
<rect x="310" y="80" width="140" height="55" rx="10" fill="#111"/>
<text x="380" y="100" font-family="Arial,sans-serif" font-size="10" fill="#888" text-anchor="middle">신고기한</text>
<text x="380" y="120" font-family="Arial,sans-serif" font-size="18" font-weight="900" fill="#58a6ff" text-anchor="middle">5월 31일</text>
<rect x="310" y="148" width="140" height="55" rx="10" fill="#111"/>
<text x="380" y="168" font-family="Arial,sans-serif" font-size="10" fill="#888" text-anchor="middle">무신고 가산세</text>
<text x="380" y="188" font-family="Arial,sans-serif" font-size="18" font-weight="900" fill="#f85149" text-anchor="middle">20%</text>
</svg>