<svg xmlns="http://www.w3.org/2000/svg" width="480" height="270" viewBox="0 0 480 270">
<defs></defs>
<rect width="480" height="270" fill="#0a0c10"/>
<rect x="0" y="0" width="480" height="3" fill="#f7931a"/>
<!-- 지갑 아이콘 배경 -->
<text x="320" y="200" font-family="Arial,sans-serif" font-size="100" opacity=".1">👛</text>
<text x="28" y="52" font-family="Arial,sans-serif" font-size="16" font-weight="900" fill="#f0f0f0">👛 코린이 필수 가이드</text>
<text x="28" y="70" font-family="Arial,sans-serif" font-size="11" fill="#888">지갑 · CSV · 용어 · 업비트 활용법</text>
<!-- 비교 테이블 -->
<rect x="28" y="88" width="420" height="30" rx="0" fill="#1a1a1a"/>
<text x="48" y="108" font-family="Arial,sans-serif" font-size="10" font-weight="700" fill="#888">종류</text>
<text x="180" y="108" font-family="Arial,sans-serif" font-size="10" font-weight="700" fill="#888">보안</text>
<text x="280" y="108" font-family="Arial,sans-serif" font-size="10" font-weight="700" fill="#888">편의성</text>
<text x="380" y="108" font-family="Arial,sans-serif" font-size="10" font-weight="700" fill="#888">추천</text>

<rect x="28" y="118" width="420" height="28" fill="#111"/>
<text x="48" y="136" font-family="Arial,sans-serif" font-size="10" fill="#f0f0f0">하드웨어 지갑</text>
<text x="180" y="136" font-family="Arial,sans-serif" font-size="10" fill="#3fb950">★★★★★</text>
<text x="280" y="136" font-family="Arial,sans-serif" font-size="10" fill="#f85149">★★☆☆☆</text>
<text x="380" y="136" font-family="Arial,sans-serif" font-size="10" fill="#f7931a">대액 보관</text>

<rect x="28" y="146" width="420" height="28" fill="#0d0d0d"/>
<text x="48" y="164" font-family="Arial,sans-serif" font-size="10" fill="#f0f0f0">거래소 지갑</text>
<text x="180" y="164" font-family="Arial,sans-serif" font-size="10" fill="#f7931a">★★★☆☆</text>
<text x="280" y="164" font-family="Arial,sans-serif" font-size="10" fill="#3fb950">★★★★★</text>
<text x="380" y="164" font-family="Arial,sans-serif" font-size="10" fill="#58a6ff">거래용</text>

<rect x="28" y="174" width="420" height="28" fill="#111"/>
<text x="48" y="192" font-family="Arial,sans-serif" font-size="10" fill="#f0f0f0">소프트웨어 지갑</text>
<text x="180" y="192" font-family="Arial,sans-serif" font-size="10" fill="#f7931a">★★★★☆</text>
<text x="280" y="192" font-family="Arial,sans-serif" font-size="10" fill="#f7931a">★★★★☆</text>
<text x="380" y="192" font-family="Arial,sans-serif" font-size="10" fill="#6366f1">DeFi</text>

<text x="28" y="236" font-family="Arial,sans-serif" font-size="10" fill="#555">* 보안이 중요한 대액은 반드시 하드웨어 지갑 사용 권장</text>
</svg>