<svg xmlns="http://www.w3.org/2000/svg" width="480" height="270" viewBox="0 0 480 270">
<defs><linearGradient id="og" x1="0" y1="0" x2="1" y2="1"><stop offset="0" stop-color="#f7931a"/><stop offset="1" stop-color="#ff6b00"/></linearGradient></defs>
<rect width="480" height="270" fill="#0d0d0d"/>
<rect width="480" height="270" fill="url(#og)" opacity=".18"/>
<rect x="0" y="0" width="480" height="3" fill="#f7931a"/>
<!-- 배경 장식 -->
<circle cx="400" cy="50" r="90" fill="#f7931a" opacity=".06"/>
<circle cx="60" cy="220" r="60" fill="#f7931a" opacity=".05"/>
<!-- 세율 뱃지 -->
<rect x="28" y="28" width="88" height="28" rx="14" fill="#f7931a" opacity=".15"/>
<text x="72" y="46" font-family="Arial,sans-serif" font-size="12" font-weight="800" fill="#f7931a" text-anchor="middle">2027 과세</text>
<!-- 메인 숫자 -->
<text x="60" y="145" font-family="Arial,sans-serif" font-size="80" font-weight="900" fill="#f7931a" opacity=".95">22%</text>
<text x="60" y="172" font-family="Arial,sans-serif" font-size="14" font-weight="600" fill="#aaa">가상자산 양도소득세율</text>
<!-- 우측 인포그래픽 바 -->
<rect x="290" y="60" width="20" height="160" rx="4" fill="#333"/>
<rect x="290" y="120" width="20" height="100" rx="4" fill="#f7931a"/>
<rect x="320" y="80" width="20" height="140" rx="4" fill="#333"/>
<rect x="320" y="130" width="20" height="90" rx="4" fill="#f7931a" opacity=".7"/>
<rect x="350" y="50" width="20" height="170" rx="4" fill="#333"/>
<rect x="350" y="90" width="20" height="130" rx="4" fill="#f7931a" opacity=".5"/>
<!-- 하단 메모 -->
<text x="28" y="230" font-family="Arial,sans-serif" font-size="11" fill="#666">기본공제</text>
<text x="28" y="248" font-family="Arial,sans-serif" font-size="16" font-weight="800" fill="#f7931a">250만원</text>
<text x="130" y="230" font-family="Arial,sans-serif" font-size="11" fill="#666">신고기한</text>
<text x="130" y="248" font-family="Arial,sans-serif" font-size="16" font-weight="800" fill="#58a6ff">5월</text>
<text x="210" y="230" font-family="Arial,sans-serif" font-size="11" fill="#666">지방세 포함</text>
<text x="210" y="248" font-family="Arial,sans-serif" font-size="16" font-weight="800" fill="#3fb950">22%</text>
</svg>